<?xml version="1.0" encoding="UTF-8" standalone="no"?>
<!-- Created with Inkscape (http://www.inkscape.org/) -->

<svg
   width="400"
   height="400"
   viewBox="0 0 100 100"
   version="1.1"
   id="svg1"
   inkscape:version="1.3.2 (091e20ef0f, 2023-11-25)"
   sodipodi:docname="seal-path.svg"
   inkscape:export-filename="Blue-SM-old-400.png"
   inkscape:export-xdpi="96"
   inkscape:export-ydpi="96"
   xmlns:inkscape="http://www.inkscape.org/namespaces/inkscape"
   xmlns:sodipodi="http://sodipodi.sourceforge.net/DTD/sodipodi-0.dtd"
   xmlns="http://www.w3.org/2000/svg"
   xmlns:svg="http://www.w3.org/2000/svg">
  <sodipodi:namedview
     id="namedview1"
     pagecolor="#505050"
     bordercolor="#eeeeee"
     borderopacity="1"
     inkscape:showpageshadow="0"
     inkscape:pageopacity="0"
     inkscape:pagecheckerboard="0"
     inkscape:deskcolor="#505050"
     inkscape:document-units="px"
     inkscape:zoom="0.94608586"
     inkscape:cx="217.21073"
     inkscape:cy="198.18497"
     inkscape:window-width="1920"
     inkscape:window-height="1011"
     inkscape:window-x="0"
     inkscape:window-y="32"
     inkscape:window-maximized="1"
     inkscape:current-layer="layer1" />
  <defs
     id="defs1" />
  <g
     inkscape:label="圖層 1"
     inkscape:groupmode="layer"
     id="layer1">
    <path
       style="fill:#dc143c;fill-opacity:1;stroke-width:0.250392;stroke-dasharray:none"
       id="path1"
       sodipodi:type="arc"
       sodipodi:cx="50"
       sodipodi:cy="50"
       sodipodi:rx="50"
       sodipodi:ry="50"
       sodipodi:start="0"
       sodipodi:end="1.5707963"
       sodipodi:arc-type="slice"
       d="M 100,50 A 50,50 0 0 1 50,100 V 50 Z" />
    <path
       style="fill:#199fd6;fill-opacity:1;stroke-width:0.250392;stroke-dasharray:none"
       id="path1-2"
       sodipodi:type="arc"
       sodipodi:cx="50"
       sodipodi:cy="50"
       sodipodi:rx="50"
       sodipodi:ry="50"
       sodipodi:start="4.712389"
       sodipodi:end="0"
       sodipodi:arc-type="slice"
       d="m 50,0 a 50,50 0 0 1 50,50 H 50 Z" />
    <path
       style="fill:#199fd6;fill-opacity:1;stroke-width:0.250392;stroke-dasharray:none"
       id="path1-2-9"
       sodipodi:type="arc"
       sodipodi:cx="50"
       sodipodi:cy="50"
       sodipodi:rx="50"
       sodipodi:ry="50"
       sodipodi:start="1.5707963"
       sodipodi:end="3.1415927"
       sodipodi:arc-type="slice"
       d="M 50,100 A 50,50 0 0 1 14.644661,85.355339 50,50 0 0 1 0,50 h 50 z" />
    <path
       style="fill:#dc143c;fill-opacity:1;stroke-width:0.250392;stroke-dasharray:none"
       id="path1-7"
       sodipodi:type="arc"
       sodipodi:cx="50"
       sodipodi:cy="50"
       sodipodi:rx="50"
       sodipodi:ry="50"
       sodipodi:start="3.1415927"
       sodipodi:end="4.712389"
       sodipodi:arc-type="slice"
       d="M 0,50 A 50,50 0 0 1 50,0 v 50 z" />
    <path
       style="font-size:80px;fill:#ffffff;stroke-width:0.25"
       d="m 45.84,66.839997 c 0.72,-1.12 0.64,-1.76 1.28,-1.76 0.56,0 0.48,1.28 0.48,1.44 -0.48,8.32 -3.44,12.72 -7.92,16.48 -0.88,0.8 -0.32,1.6 0.08,1.6 h 20.56 c 0.32,0 0.96,-0.8 0,-1.6 -4.48,-3.76 -7.36,-8.16 -7.92,-16.48 0,-0.16 -0.08,-1.44 0.48,-1.44 0.64,0 0.56,0.64 1.28,1.76 3.28,5.12 8.64,8.32 14.64,8.32 9.04,0 16.08,-6.72 16.08,-16.24 0,-9.12 -6.72,-16.32 -16.24,-16.32 -2.24,0 -4.96,0.88 -6.8,1.84 0,0 -0.4,0.16 -0.56,-0.16 -0.24,-0.4 0.24,-0.72 0.24,-0.72 2.8,-2.64 4.96,-6.8 4.96,-11.6 0,-9.12 -7.36,-16.56 -16.48,-16.56 -9.2,0 -16.48,7.52 -16.48,16.64 0,4.8 2.16,8.88 4.96,11.52 0,0 0.48,0.32 0.24,0.72 -0.16,0.32 -0.56,0.16 -0.56,0.16 -1.84,-0.96 -4.48,-1.84 -6.88,-1.84 -9.28,0 -16.16,7.2 -16.16,16.32 0,9.52 7.04,16.24 16.08,16.24 6.32,0 11.68,-3.68 14.64,-8.32 z"
       id="text1"
       aria-label="♣" />
  </g>
</svg>
