<?xml version="1.0" encoding="UTF-8" standalone="no"?>
<svg
   id="_图层_1"
   data-name="图层 1"
   viewBox="0 0 16 16"
   version="1.1"
   sodipodi:docname="TFC-path.svg"
   inkscape:version="1.3 (0e150ed6c4, 2023-07-21)"
   width="16"
   height="16"
   inkscape:export-filename="Taipei-Forcing-Club/favicon.png"
   inkscape:export-xdpi="1638.4"
   inkscape:export-ydpi="1638.4"
   xmlns:inkscape="http://www.inkscape.org/namespaces/inkscape"
   xmlns:sodipodi="http://sodipodi.sourceforge.net/DTD/sodipodi-0.dtd"
   xmlns="http://www.w3.org/2000/svg"
   xmlns:svg="http://www.w3.org/2000/svg">
  <sodipodi:namedview
     id="namedview4"
     pagecolor="#ffffff"
     bordercolor="#000000"
     borderopacity="0.25"
     inkscape:showpageshadow="2"
     inkscape:pageopacity="0.0"
     inkscape:pagecheckerboard="true"
     inkscape:deskcolor="#d1d1d1"
     inkscape:zoom="30.5"
     inkscape:cx="9.5081967"
     inkscape:cy="7.7540984"
     inkscape:window-width="1920"
     inkscape:window-height="1011"
     inkscape:window-x="0"
     inkscape:window-y="32"
     inkscape:window-maximized="1"
     inkscape:current-layer="g2"
     inkscape:export-bgcolor="#ffffff00" />
  <defs
     id="defs1">
    <style
       id="style1">&#10;      .cls-1 {&#10;        fill: #011833;&#10;      }&#10;&#10;      .cls-2 {&#10;        fill: #881c21;&#10;      }&#10;    </style>
  </defs>
  <circle
     style="fill:#ffffff;fill-rule:evenodd"
     id="path5"
     cx="8"
     cy="8"
     r="7.4000001" />
  <g
     id="g2">
    <circle
       style="fill:#881c21;fill-opacity:1"
       id="path6"
       cx="8"
       cy="8"
       r="3.5" />
    <path
       style="font-size:7px;font-family:'Noto Sans';-inkscape-font-specification:'Noto Sans';fill:#ffffff"
       d="m 7.636,9.3760002 c 0.063,-0.098 0.056,-0.154 0.112,-0.154 0.049,0 0.042,0.112 0.042,0.126 C 7.748,10.076 7.489,10.461 7.097,10.79 7.02,10.86 7.069,10.93 7.104,10.93 h 1.799 c 0.028,0 0.084,-0.07 0,-0.14 C 8.511,10.461 8.259,10.076 8.21,9.3480002 c 0,-0.014 -0.007,-0.126 0.042,-0.126 0.056,0 0.049,0.056 0.112,0.154 0.287,0.448 0.756,0.7279998 1.281,0.7279998 0.791,0 1.407,-0.5879998 1.407,-1.4209998 0,-0.798 -0.588,-1.428 -1.421,-1.428 -0.196,0 -0.434,0.077 -0.595,0.161 0,0 -0.035,0.014 -0.049,-0.014 -0.021,-0.035 0.021,-0.063 0.021,-0.063 0.245,-0.231 0.434,-0.595 0.434,-1.015 0,-0.798 -0.644,-1.449 -1.442,-1.449 -0.805,0 -1.442,0.658 -1.442,1.456 0,0.42 0.189,0.777 0.434,1.008 0,0 0.042,0.028 0.021,0.063 -0.014,0.028 -0.049,0.014 -0.049,0.014 -0.161,-0.084 -0.392,-0.161 -0.602,-0.161 -0.812,0 -1.414,0.63 -1.414,1.428 0,0.833 0.616,1.4209998 1.407,1.4209998 0.553,0 1.022,-0.3219998 1.281,-0.7279998 z"
       id="text6"
       aria-label="♣" />
  </g>
  <path
     class="cls-1"
     d="M 8,1.15 C 4.22,1.15 1.15,4.22 1.15,8 c 0,3.78 3.07,6.85 6.85,6.85 3.78,0 6.85,-3.07 6.85,-6.85 C 14.85,4.22 11.78,1.15 8,1.15 Z m 6.34,4.99 C 14.4,6.35 14.05,6.78 13.69,6.88 13.37,6.97 12.21,7.18 12.14,7.2 12.08,7.21 12.03,7.17 12,7.07 11.97,6.96 12,6.9 12.05,6.89 12.1,6.88 13.28,6.53 13.38,6.5 13.48,6.47 13.56,6.4 13.55,6.38 13.55,6.35 13.44,6.34 13.34,6.37 13.24,6.4 12.06,6.75 12.01,6.76 11.96,6.77 11.91,6.74 11.87,6.63 11.84,6.53 11.86,6.47 11.91,6.44 11.96,6.41 13.06,5.97 13.38,5.87 13.74,5.76 14.27,5.93 14.33,6.14 Z M 13.56,4.43 c 0.12,0.19 -0.1,0.7 -0.41,0.9 -0.28,0.18 -1.34,0.71 -1.39,0.74 -0.06,0.03 -0.11,0 -0.17,-0.09 -0.06,-0.1 -0.05,-0.16 0,-0.19 0.05,-0.03 1.08,-0.69 1.17,-0.75 0.09,-0.06 0.15,-0.15 0.13,-0.17 -0.02,-0.02 -0.12,0 -0.21,0.05 -0.09,0.05 -1.12,0.72 -1.17,0.75 -0.04,0.03 -0.1,0.01 -0.17,-0.08 -0.06,-0.09 -0.06,-0.15 0,-0.19 0.05,-0.04 0.97,-0.78 1.25,-0.96 0.32,-0.21 0.87,-0.19 0.99,0 z M 12.33,3.01 C 12.5,3.16 12.43,3.7 12.19,3.99 11.97,4.24 11.11,5.05 11.06,5.09 11.01,5.13 10.95,5.12 10.87,5.05 10.78,4.97 10.78,4.91 10.81,4.87 10.84,4.83 11.65,3.9 11.72,3.82 11.79,3.74 11.82,3.64 11.8,3.62 11.78,3.6 11.68,3.65 11.61,3.73 11.54,3.81 10.74,4.74 10.7,4.78 10.67,4.82 10.6,4.82 10.52,4.75 10.44,4.68 10.42,4.62 10.46,4.57 10.5,4.52 11.17,3.55 11.39,3.29 11.63,3 12.17,2.86 12.34,3.01 Z M 9.92,2.53 c 0.15,-0.34 0.63,-0.63 0.83,-0.54 0.2,0.09 0.3,0.64 0.14,0.98 -0.14,0.3 -0.74,1.32 -0.77,1.37 C 10.09,4.4 10.03,4.4 9.93,4.36 9.82,4.31 9.8,4.25 9.82,4.21 9.84,4.16 10.35,3.04 10.4,2.95 10.44,2.85 10.44,2.75 10.42,2.74 10.4,2.73 10.32,2.8 10.27,2.89 10.22,2.98 9.71,4.11 9.69,4.15 9.67,4.2 9.61,4.22 9.5,4.17 9.4,4.13 9.37,4.07 9.39,4.01 9.41,3.95 9.78,2.83 9.92,2.52 Z M 8.3,2.21 C 8.35,1.84 8.72,1.43 8.94,1.46 9.16,1.49 9.4,1.99 9.35,2.36 9.3,2.69 9.01,3.84 8.99,3.9 8.98,3.96 8.92,3.99 8.81,3.97 8.7,3.95 8.66,3.9 8.66,3.85 8.66,3.8 8.84,2.58 8.86,2.48 8.87,2.38 8.85,2.28 8.82,2.27 8.79,2.27 8.74,2.35 8.72,2.46 8.7,2.57 8.53,3.78 8.52,3.83 8.51,3.88 8.46,3.92 8.35,3.9 8.25,3.88 8.2,3.85 8.2,3.78 8.2,3.72 8.25,2.54 8.29,2.21 Z M 7.06,1.46 C 7.28,1.43 7.65,1.84 7.7,2.21 7.75,2.54 7.79,3.72 7.79,3.78 7.79,3.84 7.74,3.88 7.64,3.9 7.53,3.92 7.47,3.88 7.47,3.83 7.47,3.78 7.29,2.56 7.27,2.46 7.26,2.36 7.2,2.27 7.17,2.27 7.14,2.27 7.11,2.37 7.13,2.48 7.14,2.58 7.32,3.8 7.33,3.85 7.34,3.9 7.3,3.95 7.18,3.97 7.08,3.99 7.02,3.97 7,3.9 6.99,3.84 6.69,2.69 6.64,2.36 6.58,1.99 6.83,1.49 7.05,1.46 Z M 5.26,1.99 C 5.46,1.9 5.93,2.18 6.09,2.53 6.23,2.84 6.6,3.96 6.62,4.02 6.64,4.08 6.6,4.13 6.51,4.18 6.4,4.23 6.35,4.21 6.32,4.16 6.3,4.11 5.79,2.99 5.74,2.9 5.7,2.8 5.62,2.74 5.59,2.75 5.56,2.76 5.56,2.87 5.61,2.96 5.65,3.06 6.16,4.18 6.19,4.22 6.21,4.27 6.19,4.33 6.08,4.37 5.98,4.41 5.92,4.41 5.89,4.35 5.86,4.29 5.26,3.28 5.12,2.98 4.96,2.64 5.05,2.09 5.26,2 Z M 3.68,3.01 c 0.17,-0.15 0.7,0 0.95,0.28 C 4.85,3.54 5.52,4.51 5.56,4.57 5.6,4.62 5.58,4.68 5.5,4.75 5.41,4.83 5.35,4.82 5.32,4.78 5.29,4.74 4.48,3.81 4.41,3.73 4.34,3.65 4.25,3.61 4.22,3.62 4.2,3.64 4.22,3.74 4.3,3.82 4.37,3.9 5.17,4.83 5.21,4.87 5.24,4.91 5.24,4.97 5.15,5.05 5.07,5.12 5.01,5.13 4.96,5.09 4.91,5.05 4.05,4.24 3.83,3.99 3.58,3.71 3.52,3.16 3.69,3.01 Z M 2.45,4.43 c 0.12,-0.19 0.67,-0.2 0.99,0 0.28,0.18 1.2,0.92 1.25,0.96 0.05,0.04 0.05,0.1 0,0.19 C 4.63,5.68 4.57,5.69 4.52,5.66 4.48,5.63 3.44,4.97 3.35,4.91 3.26,4.85 3.16,4.84 3.14,4.86 3.13,4.88 3.18,4.97 3.27,5.03 3.36,5.09 4.39,5.75 4.44,5.78 4.48,5.81 4.5,5.87 4.44,5.97 4.38,6.06 4.33,6.09 4.27,6.06 4.21,6.03 3.16,5.5 2.88,5.32 2.56,5.12 2.35,4.61 2.47,4.42 Z M 2.62,5.86 C 2.94,5.96 4.03,6.41 4.09,6.43 4.15,6.45 4.16,6.51 4.13,6.62 4.1,6.73 4.04,6.76 3.99,6.75 3.94,6.74 2.76,6.39 2.66,6.36 2.56,6.33 2.46,6.35 2.45,6.37 2.45,6.4 2.52,6.47 2.62,6.49 2.72,6.52 3.9,6.87 3.95,6.88 4,6.89 4.03,6.95 4,7.06 3.97,7.16 3.92,7.21 3.86,7.19 3.8,7.18 2.64,6.97 2.31,6.87 1.95,6.77 1.6,6.34 1.66,6.13 1.72,5.92 2.25,5.75 2.61,5.86 Z M 1.4,8 c 0,-0.22 0.46,-0.53 0.83,-0.53 0.33,0 1.51,0.13 1.57,0.13 0.06,0 0.1,0.06 0.1,0.17 0,0.12 -0.04,0.16 -0.1,0.16 -0.06,0 -1.28,0 -1.39,0 -0.11,0 -0.2,0.04 -0.2,0.07 0,0.03 0.1,0.07 0.2,0.07 0.1,0 1.34,0 1.39,0 0.05,0 0.1,0.04 0.1,0.16 C 3.9,8.34 3.87,8.39 3.8,8.4 3.74,8.4 2.56,8.53 2.23,8.53 1.85,8.53 1.4,8.22 1.4,8 Z M 1.67,9.86 C 1.61,9.65 1.96,9.22 2.32,9.12 2.64,9.03 3.8,8.82 3.87,8.8 3.93,8.79 3.98,8.83 4.01,8.93 4.04,9.04 4.01,9.1 3.96,9.11 3.91,9.12 2.73,9.47 2.63,9.5 2.53,9.53 2.45,9.6 2.46,9.62 2.47,9.64 2.57,9.66 2.67,9.63 2.77,9.6 3.95,9.25 4,9.24 4.05,9.23 4.1,9.26 4.14,9.37 4.17,9.47 4.15,9.53 4.1,9.56 4.04,9.58 2.95,10.03 2.63,10.13 2.27,10.24 1.74,10.07 1.68,9.86 Z m 0.78,1.71 c -0.12,-0.19 0.1,-0.7 0.41,-0.9 0.28,-0.18 1.34,-0.71 1.39,-0.74 0.06,-0.03 0.11,0 0.17,0.09 0.06,0.1 0.05,0.16 0,0.19 -0.04,0.03 -1.08,0.69 -1.17,0.75 -0.09,0.06 -0.15,0.15 -0.13,0.17 0.01,0.02 0.12,0 0.21,-0.05 0.09,-0.06 1.12,-0.72 1.17,-0.75 0.04,-0.03 0.1,-0.01 0.17,0.08 0.06,0.09 0.06,0.15 0,0.19 -0.05,0.04 -0.97,0.78 -1.25,0.96 -0.32,0.21 -0.87,0.19 -0.99,0 z m 1.23,1.42 C 3.51,12.84 3.58,12.3 3.82,12.01 4.04,11.76 4.9,10.95 4.95,10.91 5,10.87 5.06,10.88 5.14,10.95 c 0.09,0.08 0.09,0.14 0.06,0.18 -0.03,0.04 -0.84,0.97 -0.91,1.05 -0.07,0.08 -0.1,0.18 -0.08,0.2 0.02,0.02 0.12,-0.03 0.19,-0.11 0.07,-0.08 0.87,-1.01 0.91,-1.05 0.03,-0.04 0.1,-0.04 0.18,0.03 0.08,0.07 0.1,0.13 0.06,0.18 C 5.51,11.48 4.84,12.45 4.62,12.71 4.38,13 3.84,13.14 3.67,12.99 Z m 2.41,0.48 C 5.94,13.81 5.46,14.1 5.26,14.01 5.06,13.92 4.96,13.37 5.12,13.03 5.26,12.73 5.86,11.71 5.89,11.66 5.92,11.6 5.98,11.6 6.08,11.64 c 0.11,0.05 0.13,0.11 0.11,0.15 -0.02,0.05 -0.53,1.17 -0.58,1.26 -0.05,0.09 -0.04,0.2 -0.02,0.21 0.03,0.01 0.1,-0.06 0.15,-0.15 0.04,-0.1 0.56,-1.22 0.58,-1.26 0.02,-0.05 0.08,-0.07 0.19,-0.02 0.1,0.04 0.13,0.1 0.11,0.16 -0.02,0.06 -0.39,1.18 -0.53,1.49 z m 1.62,0.32 C 7.66,14.16 7.29,14.57 7.07,14.54 6.85,14.51 6.61,14.01 6.66,13.64 6.71,13.31 7,12.16 7.02,12.1 7.03,12.04 7.09,12.01 7.2,12.03 c 0.11,0.02 0.15,0.07 0.15,0.12 0,0.05 -0.18,1.27 -0.2,1.37 -0.01,0.1 0.01,0.2 0.04,0.21 0.03,0 0.08,-0.08 0.1,-0.19 0.01,-0.1 0.19,-1.32 0.2,-1.37 0.01,-0.05 0.06,-0.09 0.17,-0.07 0.1,0.01 0.15,0.05 0.15,0.12 0,0.06 -0.05,1.24 -0.09,1.58 z M 4.31,8 c 0,-2.04 1.66,-3.7 3.7,-3.7 2.04,0 3.7,1.66 3.7,3.7 0,2.04 -1.66,3.7 -3.7,3.7 -2.04,0 -3.7,-1.66 -3.7,-3.7 z m 4.64,6.54 C 8.73,14.57 8.36,14.16 8.31,13.79 8.26,13.46 8.22,12.28 8.22,12.21 c 0,-0.06 0.05,-0.1 0.15,-0.12 0.11,-0.02 0.17,0.02 0.17,0.07 0,0.05 0.18,1.27 0.2,1.37 0.02,0.1 0.07,0.19 0.1,0.19 0.03,0 0.06,-0.1 0.04,-0.21 -0.02,-0.1 -0.19,-1.32 -0.2,-1.37 0,-0.05 0.03,-0.1 0.15,-0.12 0.1,-0.02 0.16,0 0.18,0.07 0.01,0.06 0.31,1.21 0.36,1.54 0.06,0.37 -0.19,0.87 -0.41,0.9 z m 1.8,-0.53 C 10.55,14.1 10.08,13.82 9.92,13.47 9.78,13.16 9.41,12.04 9.39,11.98 9.37,11.92 9.41,11.87 9.5,11.82 c 0.11,-0.05 0.16,-0.03 0.19,0.02 0.02,0.05 0.53,1.17 0.58,1.26 0.04,0.1 0.12,0.16 0.15,0.15 0.03,-0.01 0.03,-0.12 -0.02,-0.21 -0.04,-0.1 -0.55,-1.22 -0.58,-1.26 -0.02,-0.05 0,-0.11 0.11,-0.15 0.1,-0.04 0.16,-0.04 0.19,0.02 0.03,0.06 0.63,1.07 0.77,1.37 0.16,0.34 0.07,0.89 -0.14,0.98 z m 1.58,-1.02 c -0.17,0.15 -0.7,0 -0.95,-0.28 -0.22,-0.25 -0.89,-1.22 -0.93,-1.28 -0.04,-0.05 -0.02,-0.11 0.06,-0.18 0.09,-0.08 0.15,-0.07 0.18,-0.03 0.03,0.04 0.84,0.97 0.91,1.05 0.07,0.08 0.16,0.12 0.19,0.11 0.02,-0.02 0,-0.12 -0.08,-0.2 -0.07,-0.08 -0.87,-1.01 -0.91,-1.05 -0.04,-0.04 -0.03,-0.1 0.06,-0.18 0.08,-0.07 0.14,-0.08 0.19,-0.04 0.05,0.04 0.91,0.85 1.13,1.1 0.25,0.28 0.31,0.83 0.14,0.98 z m 1.23,-1.42 c -0.12,0.19 -0.67,0.2 -0.99,0 -0.28,-0.18 -1.2,-0.92 -1.25,-0.96 -0.05,-0.04 -0.05,-0.1 0,-0.19 0.06,-0.1 0.12,-0.11 0.17,-0.08 0.04,0.03 1.08,0.69 1.17,0.75 0.09,0.06 0.19,0.07 0.21,0.05 0.02,-0.02 -0.04,-0.11 -0.13,-0.17 -0.09,-0.06 -1.12,-0.72 -1.17,-0.75 -0.04,-0.03 -0.06,-0.09 0,-0.19 0.06,-0.09 0.11,-0.12 0.17,-0.09 0.06,0.03 1.11,0.56 1.39,0.74 0.32,0.2 0.53,0.71 0.41,0.9 z M 13.39,10.14 C 13.07,10.04 11.98,9.59 11.92,9.57 11.86,9.55 11.85,9.49 11.88,9.38 c 0.03,-0.11 0.09,-0.14 0.14,-0.13 0.05,0.01 1.23,0.36 1.33,0.39 0.1,0.03 0.2,0.01 0.21,-0.01 0,-0.03 -0.07,-0.1 -0.17,-0.12 C 13.29,9.49 12.11,9.13 12.06,9.12 12.01,9.11 11.98,9.05 12.01,8.94 c 0.03,-0.1 0.08,-0.15 0.14,-0.13 0.06,0.01 1.22,0.22 1.55,0.32 0.36,0.1 0.71,0.53 0.65,0.74 -0.06,0.21 -0.59,0.38 -0.95,0.27 z m 0.38,-1.6 c -0.34,0 -1.51,-0.13 -1.57,-0.13 -0.06,0 -0.1,-0.06 -0.1,-0.17 0,-0.12 0.04,-0.16 0.1,-0.16 0.06,0 1.28,0 1.39,0 0.11,0 0.2,-0.04 0.2,-0.07 0,-0.03 -0.1,-0.07 -0.2,-0.07 -0.1,0 -1.34,0 -1.39,0 -0.05,0 -0.1,-0.04 -0.1,-0.16 0,-0.11 0.03,-0.16 0.1,-0.17 0.07,-0.01 1.24,-0.13 1.57,-0.13 0.38,0 0.83,0.31 0.83,0.53 0,0.22 -0.46,0.53 -0.83,0.53 z"
     id="path3" />
  <path
     class="cls-1"
     d="M 8,0.5 C 3.86,0.5 0.5,3.86 0.5,8 c 0,4.14 3.36,7.5 7.5,7.5 4.14,0 7.5,-3.36 7.5,-7.5 C 15.5,3.86 12.14,0.5 8,0.5 Z M 8,15.1 C 4.09,15.1 0.9,11.92 0.9,8 0.9,4.08 4.09,0.9 8,0.9 c 3.91,0 7.1,3.18 7.1,7.1 0,3.92 -3.18,7.1 -7.1,7.1 z"
     id="path4" />
</svg>
